<?xml version="1.0" encoding="utf-8"?>
<!-- Generator: Adobe Illustrator 16.0.0, SVG Export Plug-In . SVG Version: 6.00 Build 0)  -->
<!DOCTYPE svg PUBLIC "-//W3C//DTD SVG 1.1//EN" "http://www.w3.org/Graphics/SVG/1.1/DTD/svg11.dtd">
<svg version="1.1" id="Layer_1" xmlns="http://www.w3.org/2000/svg" xmlns:xlink="http://www.w3.org/1999/xlink" x="0px" y="0px"
	 width="612px" height="792px" viewBox="0 0 612 792" enable-background="new 0 0 612 792" xml:space="preserve">
<g>
	<path fill="#11998E" d="M453.45,176.847c0-11.055-11.76-13.94-24.705-13.94H164.642c-13.322,0-15.009,5.447-15.009,16.768
		c0,0-0.189,114.125,0,228.625c0,112.201,0,224.774,0,230.704c0,11.963,4.877,14.421,16.76,14.421c0,0,251.723,0,269.357,0
		c17.638,0,17.76-5.501,17.76-15.966c0,0,0-114.445,0-229.21l0,0C453.323,298.34,453.511,182.187,453.45,176.847z M270.396,175.671
		l60.037-0.105c3.129,0,5.692,2.134,5.692,4.806c0,2.669-2.503,4.859-5.63,4.859l-60.037,0.107c-3.126,0-5.691-2.136-5.691-4.807
		C264.704,177.807,267.269,175.671,270.396,175.671z M301.229,634.145c-13.321,0-24.079-9.187-24.079-20.562
		c0-11.372,10.758-20.558,24.079-20.558c13.319,0,24.079,9.186,24.079,20.558C325.308,624.958,314.549,634.145,301.229,634.145z
		 M428.808,571.126H175.086V408.245h-0.188l-0.375-211.585l254.283-0.322v221.361l0,0L428.808,571.126L428.808,571.126z"/>
	<path fill="#11998E" d="M301.917,287.07c-56.412,0-75.672,40.907-75.672,60.293c0,19.385,20.639,65.793,74.297,141.039
		c35.086-51.693,73.607-108.729,73.607-135.165C374.212,324.881,352.638,287.07,301.917,287.07z M300.415,380.53
		c-21.327,0-38.649-14.74-38.649-32.897c0-18.157,17.323-32.897,38.649-32.897c21.328,0,38.649,14.739,38.649,32.897
		C339.064,365.79,321.804,380.53,300.415,380.53z"/>
</g>
</svg>
