<?xml version="1.0" encoding="utf-8"?>
<!-- Generator: Adobe Illustrator 16.0.0, SVG Export Plug-In . SVG Version: 6.00 Build 0)  -->
<!DOCTYPE svg PUBLIC "-//W3C//DTD SVG 1.1//EN" "http://www.w3.org/Graphics/SVG/1.1/DTD/svg11.dtd">
<svg version="1.1" id="Calque_1" xmlns="http://www.w3.org/2000/svg" xmlns:xlink="http://www.w3.org/1999/xlink" x="0px" y="0px"
	 width="612px" height="792px" viewBox="0 0 612 792" enable-background="new 0 0 612 792" xml:space="preserve">
<g>
	<path fill="#11998E" d="M464.361,90H147.639c-21.365,0-38.745,17.381-38.745,38.746v534.509c0,21.364,17.381,38.746,38.746,38.746
		h316.721c21.363,0,38.746-17.381,38.746-38.746V128.746C503.105,107.381,485.727,90,464.361,90z M128.31,187.384h355.381v404.738
		H128.31V187.384z M147.639,109.416h316.722c10.655,0,19.33,8.671,19.33,19.33v45.694H128.31v-45.694
		C128.31,118.087,136.981,109.416,147.639,109.416z M464.361,682.584H147.639c-10.658,0-19.331-8.671-19.331-19.33v-58.189H483.69
		v58.189C483.69,673.913,475.019,682.584,464.361,682.584z"/>
	<path fill="#11998E" d="M306.001,613.646c-17.533,0-31.795,14.264-31.795,31.797c0,17.53,14.264,31.795,31.795,31.795
		c17.531,0,31.795-14.266,31.795-31.795C337.796,627.912,323.533,613.646,306.001,613.646z M306.001,664.295
		c-10.396,0-18.852-8.458-18.852-18.852c0-10.396,8.456-18.854,18.852-18.854c10.396,0,18.852,8.457,18.852,18.854
		C324.853,655.837,316.396,664.295,306.001,664.295z"/>
	<path fill="#11998E" d="M261.992,151.671h88.018c3.575,0,6.474-2.898,6.474-6.472c0-3.574-2.896-6.472-6.474-6.472h-88.018
		c-3.575,0-6.472,2.898-6.472,6.472C255.52,148.773,258.417,151.671,261.992,151.671z"/>
	<path fill="#11998E" d="M238.696,151.671c1.696,0,3.366-0.686,4.569-1.89c1.204-1.217,1.903-2.874,1.903-4.582
		c0-1.709-0.699-3.366-1.903-4.582c-1.205-1.204-2.875-1.89-4.569-1.89c-1.708,0-3.367,0.686-4.582,1.89
		c-1.204,1.204-1.89,2.873-1.89,4.582c0,1.708,0.686,3.365,1.89,4.582C235.318,150.985,236.988,151.671,238.696,151.671z"/>
</g>
</svg>
