<?xml version="1.0" encoding="utf-8"?>
<!-- Generator: Adobe Illustrator 16.0.0, SVG Export Plug-In . SVG Version: 6.00 Build 0)  -->
<!DOCTYPE svg PUBLIC "-//W3C//DTD SVG 1.1//EN" "http://www.w3.org/Graphics/SVG/1.1/DTD/svg11.dtd">
<svg version="1.1" id="Layer_1" xmlns="http://www.w3.org/2000/svg" xmlns:xlink="http://www.w3.org/1999/xlink" x="0px" y="0px"
	 width="612px" height="792px" viewBox="0 0 612 792" enable-background="new 0 0 612 792" xml:space="preserve">
<g>
	<path fill="#FFFFFF" d="M476.251,122.212c0-13.18-13.632-16.62-28.635-16.62H141.504c-15.44,0-17.396,6.494-17.396,19.992
		c0,0-0.219,136.067,0,272.582c0,133.775,0,267.996,0,275.065c0,14.26,5.654,17.192,19.426,17.192c0,0,291.762,0,312.2,0
		c20.445,0,20.586-6.558,20.586-19.035c0,0,0-136.451,0-273.282l0,0C476.105,267.066,476.321,128.58,476.251,122.212z
		 M264.081,120.812l69.585-0.126c3.627,0,6.601,2.547,6.601,5.731c0,3.182-2.903,5.793-6.525,5.793l-69.588,0.127
		c-3.624,0-6.597-2.546-6.597-5.731C257.483,123.358,260.456,120.812,264.081,120.812z M299.817,667.438
		c-15.441,0-27.909-10.953-27.909-24.514s12.469-24.513,27.909-24.513c15.437,0,27.907,10.952,27.907,24.513
		S315.256,667.438,299.817,667.438z M447.691,592.306H153.61V398.104h-0.217l-0.437-252.267l294.73-0.383v263.921l0,0v182.931
		H447.691z"/>
	<path fill="#FFFFFF" d="M300.614,253.631c-65.384,0-87.708,48.771-87.708,71.886c0,23.112,23.92,78.442,86.115,168.156
		c40.666-61.632,85.315-129.635,85.315-161.152C384.409,298.711,359.401,253.631,300.614,253.631z M298.874,365.06
		c-24.719,0-44.798-17.576-44.798-39.224c0-21.647,20.079-39.223,44.798-39.223c24.72,0,44.799,17.574,44.799,39.223
		C343.673,347.484,323.665,365.06,298.874,365.06z"/>
</g>
</svg>
